<svg width="18" height="18" viewBox="0 0 18 18" fill="none" xmlns="http://www.w3.org/2000/svg">
<path d="M16.3125 14.625C16.3125 14.7742 16.2532 14.9173 16.1477 15.0227C16.0423 15.1282 15.8992 15.1875 15.75 15.1875H2.25C2.10082 15.1875 1.95774 15.1282 1.85225 15.0227C1.74676 14.9173 1.6875 14.7742 1.6875 14.625V3.375C1.6875 3.22582 1.74676 3.08274 1.85225 2.97725C1.95774 2.87176 2.10082 2.8125 2.25 2.8125C2.39918 2.8125 2.54226 2.87176 2.64775 2.97725C2.75324 3.08274 2.8125 3.22582 2.8125 3.375V10.0104L6.37945 6.89062C6.47652 6.80566 6.59983 6.75663 6.72874 6.75177C6.85765 6.74691 6.98431 6.7865 7.0875 6.86391L11.2226 9.96539L15.3795 6.32812C15.434 6.27417 15.4989 6.23194 15.5703 6.20401C15.6418 6.17608 15.7181 6.16306 15.7948 6.16573C15.8714 6.1684 15.9467 6.18672 16.016 6.21956C16.0853 6.2524 16.1472 6.29906 16.1978 6.35668C16.2484 6.4143 16.2867 6.48166 16.3103 6.55462C16.3339 6.62759 16.3424 6.70461 16.3352 6.78096C16.3279 6.85731 16.3052 6.93137 16.2683 6.99859C16.2313 7.06582 16.1811 7.12479 16.1205 7.17188L11.6205 11.1094C11.5235 11.1943 11.4002 11.2434 11.2713 11.2482C11.1424 11.2531 11.0157 11.2135 10.9125 11.1361L6.77742 8.03602L2.8125 11.5052V14.0625H15.75C15.8992 14.0625 16.0423 14.1218 16.1477 14.2273C16.2532 14.3327 16.3125 14.4758 16.3125 14.625Z" fill="#102A56"/>
</svg>
