<svg width="14" height="14" viewBox="0 0 14 14" fill="none" xmlns="http://www.w3.org/2000/svg">
<path d="M13.5306 1.53104L2.81031 12.2504H10.75C10.9489 12.2504 11.1397 12.3294 11.2803 12.4701C11.421 12.6107 11.5 12.8015 11.5 13.0004C11.5 13.1993 11.421 13.3901 11.2803 13.5307C11.1397 13.6714 10.9489 13.7504 10.75 13.7504H1C0.801088 13.7504 0.610322 13.6714 0.46967 13.5307C0.329018 13.3901 0.25 13.1993 0.25 13.0004V3.25042C0.25 3.0515 0.329018 2.86074 0.46967 2.72009C0.610322 2.57943 0.801088 2.50042 1 2.50042C1.19891 2.50042 1.38968 2.57943 1.53033 2.72009C1.67098 2.86074 1.75 3.0515 1.75 3.25042V11.1901L12.4694 0.469792C12.5391 0.400109 12.6218 0.344834 12.7128 0.307122C12.8039 0.26941 12.9015 0.25 13 0.25C13.0985 0.25 13.1961 0.26941 13.2872 0.307122C13.3782 0.344834 13.4609 0.400109 13.5306 0.469792C13.6003 0.539475 13.6556 0.6222 13.6933 0.713245C13.731 0.804289 13.7504 0.901871 13.7504 1.00042C13.7504 1.09896 13.731 1.19654 13.6933 1.28759C13.6556 1.37863 13.6003 1.46136 13.5306 1.53104Z" fill="#17B26A"/>
</svg>
