<svg width="18" height="18" viewBox="0 0 18 18" fill="none" xmlns="http://www.w3.org/2000/svg">
<path d="M12.375 7.875H10.6875C10.5383 7.875 10.3953 7.81574 10.2898 7.71025C10.1843 7.60476 10.125 7.46168 10.125 7.3125C10.125 7.16332 10.1843 7.02024 10.2898 6.91475C10.3953 6.80926 10.5383 6.75 10.6875 6.75H12.375C12.5242 6.75 12.6673 6.80926 12.7728 6.91475C12.8782 7.02024 12.9375 7.16332 12.9375 7.3125C12.9375 7.46168 12.8782 7.60476 12.7728 7.71025C12.6673 7.81574 12.5242 7.875 12.375 7.875ZM7.31251 6.75H6.75001V6.1875C6.75001 6.03832 6.69075 5.89524 6.58526 5.78975C6.47977 5.68426 6.33669 5.625 6.18751 5.625C6.03833 5.625 5.89525 5.68426 5.78976 5.78975C5.68427 5.89524 5.62501 6.03832 5.62501 6.1875V6.75H5.06251C4.91333 6.75 4.77025 6.80926 4.66476 6.91475C4.55927 7.02024 4.50001 7.16332 4.50001 7.3125C4.50001 7.46168 4.55927 7.60476 4.66476 7.71025C4.77025 7.81574 4.91333 7.875 5.06251 7.875H5.62501V8.4375C5.62501 8.58668 5.68427 8.72976 5.78976 8.83525C5.89525 8.94074 6.03833 9 6.18751 9C6.33669 9 6.47977 8.94074 6.58526 8.83525C6.69075 8.72976 6.75001 8.58668 6.75001 8.4375V7.875H7.31251C7.46169 7.875 7.60477 7.81574 7.71026 7.71025C7.81575 7.60476 7.87501 7.46168 7.87501 7.3125C7.87501 7.16332 7.81575 7.02024 7.71026 6.91475C7.60477 6.80926 7.46169 6.75 7.31251 6.75ZM16.9791 14.1082C16.7671 14.4109 16.4914 14.6636 16.1713 14.8484C15.8512 15.0331 15.4946 15.1456 15.1264 15.1778C14.7583 15.2101 14.3875 15.1613 14.0402 15.0349C13.6929 14.9086 13.3775 14.7077 13.1161 14.4464C13.1077 14.438 13.0992 14.4295 13.0915 14.4204L10.2994 11.25H7.69782L4.90853 14.4204L4.88392 14.4464C4.40875 14.9205 3.76503 15.187 3.09376 15.1875C2.72422 15.1874 2.3592 15.1063 2.02433 14.9501C1.68946 14.7938 1.39286 14.5661 1.15538 14.283C0.91789 13.9999 0.745274 13.6682 0.649654 13.3112C0.554034 12.9543 0.537729 12.5807 0.601885 12.2168C0.601546 12.2135 0.601546 12.2102 0.601885 12.207L1.7529 6.29437C1.9242 5.31919 2.43371 4.43557 3.19189 3.79878C3.95006 3.162 4.90841 2.81278 5.89853 2.8125H12.0938C13.0809 2.81407 14.0363 3.16129 14.7941 3.79387C15.5519 4.42644 16.0643 5.30443 16.2422 6.27539C16.2422 6.27961 16.2422 6.28383 16.2422 6.28805L17.3932 12.2063C17.3936 12.2095 17.3936 12.2128 17.3932 12.2161C17.4528 12.5432 17.4469 12.8789 17.3758 13.2037C17.3047 13.5284 17.1698 13.8359 16.9791 14.1082ZM12.0938 10.125C12.9143 10.125 13.7012 9.79905 14.2814 9.21886C14.8616 8.63867 15.1875 7.85176 15.1875 7.03125C15.1875 6.21074 14.8616 5.42383 14.2814 4.84364C13.7012 4.26345 12.9143 3.9375 12.0938 3.9375H5.89853C5.17216 3.93815 4.4693 4.19494 3.91358 4.66268C3.35787 5.13043 2.98491 5.77917 2.86032 6.49477V6.50391L1.7086 12.4165C1.6577 12.7096 1.70107 13.0113 1.83248 13.2782C1.96389 13.5452 2.17657 13.7635 2.43993 13.9019C2.7033 14.0403 3.00377 14.0916 3.29814 14.0485C3.5925 14.0053 3.86559 13.8699 4.07814 13.6617L7.02563 10.3155C7.07841 10.2557 7.14332 10.2077 7.21606 10.1749C7.2888 10.142 7.3677 10.125 7.44751 10.125H12.0938ZM16.2914 12.4165L15.6769 9.25242C15.2989 9.86273 14.7715 10.3665 14.1445 10.7161C13.5175 11.0656 12.8116 11.2494 12.0938 11.25H11.7984L13.9219 13.6624C14.082 13.8181 14.2767 13.9337 14.4901 13.9996C14.7035 14.0654 14.9295 14.0798 15.1495 14.0414C15.5161 13.9767 15.842 13.7694 16.0559 13.4648C16.2698 13.1602 16.3543 12.7832 16.2907 12.4165H16.2914Z" fill="#102A56"/>
</svg>
