<svg width="18" height="18" viewBox="0 0 18 18" fill="none" xmlns="http://www.w3.org/2000/svg">
<path d="M16.8349 9.35156L14.5849 3.72656C14.5354 3.60266 14.4434 3.50041 14.3254 3.43807C14.2074 3.37573 14.0711 3.35736 13.9409 3.38625L9.56251 4.35938V2.8125C9.56251 2.66332 9.50325 2.52024 9.39776 2.41475C9.29227 2.30926 9.14919 2.25 9.00001 2.25C8.85083 2.25 8.70775 2.30926 8.60226 2.41475C8.49677 2.52024 8.43751 2.66332 8.43751 2.8125V4.61109L3.81517 5.63836C3.72605 5.65805 3.64305 5.69912 3.57335 5.75804C3.50365 5.81696 3.44933 5.89196 3.41509 5.97656V5.98078L1.16509 11.6016C1.13817 11.6686 1.12456 11.7403 1.12501 11.8125C1.12501 13.4515 2.85048 14.0625 3.93751 14.0625C5.02454 14.0625 6.75001 13.4515 6.75001 11.8125C6.75046 11.7403 6.73685 11.6686 6.70993 11.6016L4.70532 6.5932L8.43751 5.76562V14.625H7.31251C7.16333 14.625 7.02025 14.6843 6.91476 14.7898C6.80927 14.8952 6.75001 15.0383 6.75001 15.1875C6.75001 15.3367 6.80927 15.4798 6.91476 15.5852C7.02025 15.6907 7.16333 15.75 7.31251 15.75H10.6875C10.8367 15.75 10.9798 15.6907 11.0853 15.5852C11.1907 15.4798 11.25 15.3367 11.25 15.1875C11.25 15.0383 11.1907 14.8952 11.0853 14.7898C10.9798 14.6843 10.8367 14.625 10.6875 14.625H9.56251V5.51391L13.1484 4.71797L11.2901 9.35156C11.2632 9.41861 11.2496 9.49025 11.25 9.5625C11.25 11.2015 12.9755 11.8125 14.0625 11.8125C15.1495 11.8125 16.875 11.2015 16.875 9.5625C16.8755 9.49025 16.8618 9.41861 16.8349 9.35156ZM3.93751 12.9375C3.40806 12.9375 2.3372 12.6837 2.25493 11.9081L3.93751 7.70203L5.62009 11.9081C5.53782 12.6837 4.46696 12.9375 3.93751 12.9375ZM14.0625 10.6875C13.5331 10.6875 12.4622 10.4337 12.3799 9.65812L14.0625 5.45203L15.7451 9.65812C15.6628 10.4337 14.592 10.6875 14.0625 10.6875Z" fill="#102A56"/>
</svg>
