<svg width="18" height="18" viewBox="0 0 18 18" fill="none" xmlns="http://www.w3.org/2000/svg">
<path d="M14.9709 1.24379C14.9036 1.19129 14.8251 1.15482 14.7415 1.13716C14.658 1.11949 14.5715 1.1211 14.4886 1.14184L5.4886 3.39184C5.36691 3.42226 5.25887 3.49248 5.18167 3.59134C5.10447 3.6902 5.06252 3.81203 5.0625 3.93747V11.6775C4.59326 11.3639 4.0327 11.2162 3.46989 11.2578C2.90707 11.2993 2.37429 11.5278 1.95617 11.9068C1.53806 12.2858 1.2586 12.7937 1.16221 13.3498C1.06581 13.9058 1.15799 14.4781 1.42412 14.9758C1.69025 15.4735 2.11505 15.8679 2.63103 16.0965C3.14702 16.3251 3.72459 16.3746 4.27199 16.2374C4.81938 16.1001 5.3052 15.7838 5.65226 15.3388C5.99932 14.8938 6.18771 14.3456 6.1875 13.7812V4.37692L14.0625 2.40817V9.42747C13.5933 9.11394 13.0327 8.96622 12.4699 9.00777C11.9071 9.04932 11.3743 9.27776 10.9562 9.6568C10.5381 10.0358 10.2586 10.5437 10.1622 11.0998C10.0658 11.6558 10.158 12.2281 10.4241 12.7258C10.6902 13.2235 11.115 13.6179 11.631 13.8465C12.147 14.0751 12.7246 14.1246 13.272 13.9874C13.8194 13.8501 14.3052 13.5338 14.6523 13.0888C14.9993 12.6438 15.1877 12.0956 15.1875 11.5312V1.68747C15.1875 1.60191 15.168 1.51748 15.1305 1.4406C15.093 1.36372 15.0384 1.29641 14.9709 1.24379ZM3.65625 15.1875C3.37812 15.1875 3.10624 15.105 2.87498 14.9505C2.64373 14.7959 2.46348 14.5763 2.35705 14.3194C2.25061 14.0624 2.22276 13.7797 2.27702 13.5069C2.33128 13.2341 2.46522 12.9835 2.66188 12.7868C2.85855 12.5902 3.10912 12.4562 3.38191 12.402C3.65469 12.3477 3.93744 12.3756 4.1944 12.482C4.45136 12.5884 4.67099 12.7687 4.82551 12.9999C4.98003 13.2312 5.0625 13.5031 5.0625 13.7812C5.0625 14.1542 4.91435 14.5119 4.65062 14.7756C4.3869 15.0393 4.02921 15.1875 3.65625 15.1875ZM12.6563 12.9375C12.3781 12.9375 12.1062 12.855 11.875 12.7005C11.6437 12.5459 11.4635 12.3263 11.357 12.0694C11.2506 11.8124 11.2228 11.5297 11.277 11.2569C11.3313 10.9841 11.4652 10.7335 11.6619 10.5368C11.8586 10.3402 12.1091 10.2062 12.3819 10.152C12.6547 10.0977 12.9374 10.1256 13.1944 10.232C13.4514 10.3384 13.671 10.5187 13.8255 10.7499C13.98 10.9812 14.0625 11.2531 14.0625 11.5312C14.0625 11.9042 13.9143 12.2619 13.6506 12.5256C13.3869 12.7893 13.0292 12.9375 12.6563 12.9375Z" fill="#504949"/>
</svg>
