<svg width="7" height="12" viewBox="0 0 7 12" fill="none" xmlns="http://www.w3.org/2000/svg">
<path d="M6.35375 6.35378L1.35375 11.3538C1.28382 11.4238 1.1947 11.4715 1.09765 11.4908C1.00061 11.5101 0.900016 11.5002 0.808605 11.4623C0.717193 11.4245 0.639075 11.3603 0.58414 11.278C0.529205 11.1957 0.499922 11.099 0.5 11V1.00003C0.499922 0.90108 0.529205 0.804333 0.58414 0.722037C0.639075 0.63974 0.717193 0.575593 0.808605 0.537716C0.900016 0.49984 1.00061 0.489938 1.09765 0.509263C1.1947 0.528588 1.28382 0.576272 1.35375 0.646278L6.35375 5.64628C6.40024 5.69271 6.43712 5.74786 6.46228 5.80856C6.48744 5.86926 6.50039 5.93432 6.50039 6.00003C6.50039 6.06574 6.48744 6.1308 6.46228 6.1915C6.43712 6.2522 6.40024 6.30734 6.35375 6.35378Z" fill="#102A56"/>
</svg>
