<svg width="24" height="24" viewBox="0 0 24 24" fill="none" xmlns="http://www.w3.org/2000/svg">
<path d="M21.3991 5.91281L20.9622 5.66063C21.0134 5.38927 21.0134 5.11073 20.9622 4.83938L21.3991 4.58719C21.5714 4.48773 21.6971 4.3239 21.7486 4.13173C21.8001 3.93957 21.7732 3.73481 21.6738 3.5625C21.5743 3.39019 21.4105 3.26445 21.2183 3.21294C21.0261 3.16142 20.8214 3.18836 20.6491 3.28781L20.2113 3.54094C20.0017 3.36118 19.7608 3.22165 19.5006 3.12938V2.625C19.5006 2.42609 19.4216 2.23532 19.281 2.09467C19.1403 1.95402 18.9495 1.875 18.7506 1.875C18.5517 1.875 18.361 1.95402 18.2203 2.09467C18.0797 2.23532 18.0006 2.42609 18.0006 2.625V3.12938C17.7404 3.22165 17.4995 3.36118 17.29 3.54094L16.8522 3.28781C16.7669 3.23857 16.6727 3.20661 16.575 3.19376C16.4774 3.18091 16.3781 3.18743 16.283 3.21294C16.1878 3.23844 16.0986 3.28244 16.0205 3.34242C15.9423 3.4024 15.8768 3.47718 15.8275 3.5625C15.7783 3.64782 15.7463 3.742 15.7335 3.83967C15.7206 3.93734 15.7271 4.03658 15.7526 4.13173C15.7781 4.22688 15.8221 4.31608 15.8821 4.39423C15.9421 4.47237 16.0169 4.53794 16.1022 4.58719L16.5391 4.83938C16.4878 5.11073 16.4878 5.38927 16.5391 5.66063L16.1022 5.91281C15.9591 5.99533 15.8473 6.12275 15.7841 6.27532C15.7208 6.42789 15.7097 6.59706 15.7525 6.75659C15.7952 6.91612 15.8894 7.05708 16.0204 7.1576C16.1515 7.25811 16.312 7.31256 16.4772 7.3125C16.6089 7.31291 16.7383 7.27829 16.8522 7.21219L17.29 6.95906C17.4995 7.13882 17.7404 7.27835 18.0006 7.37063V7.875C18.0006 8.07391 18.0797 8.26468 18.2203 8.40533C18.361 8.54598 18.5517 8.625 18.7506 8.625C18.9495 8.625 19.1403 8.54598 19.281 8.40533C19.4216 8.26468 19.5006 8.07391 19.5006 7.875V7.37063C19.7608 7.27835 20.0017 7.13882 20.2113 6.95906L20.6491 7.21219C20.763 7.27829 20.8924 7.31291 21.0241 7.3125C21.1892 7.31256 21.3498 7.25811 21.4808 7.1576C21.6119 7.05708 21.7061 6.91612 21.7488 6.75659C21.7916 6.59706 21.7804 6.42789 21.7172 6.27532C21.654 6.12275 21.5421 5.99533 21.3991 5.91281ZM18.0006 5.25C18.0006 5.10166 18.0446 4.95666 18.127 4.83332C18.2094 4.70999 18.3266 4.61386 18.4636 4.55709C18.6007 4.50032 18.7515 4.48547 18.897 4.51441C19.0424 4.54335 19.1761 4.61478 19.281 4.71967C19.3859 4.82456 19.4573 4.9582 19.4862 5.10368C19.5152 5.24917 19.5003 5.39997 19.4435 5.53701C19.3868 5.67406 19.2906 5.79119 19.1673 5.8736C19.044 5.95601 18.899 6 18.7506 6C18.5517 6 18.361 5.92098 18.2203 5.78033C18.0797 5.63968 18.0006 5.44891 18.0006 5.25ZM20.7522 9.76031C20.556 9.79314 20.3809 9.90255 20.2654 10.0645C20.1499 10.2264 20.1034 10.4276 20.1363 10.6238C20.2124 11.0785 20.2507 11.5389 20.2506 12C20.2524 14.0196 19.5101 15.969 18.1656 17.4759C17.3292 16.2638 16.153 15.3261 14.785 14.7806C15.5198 14.2019 16.056 13.4085 16.3191 12.5108C16.5821 11.6132 16.5588 10.6559 16.2526 9.77207C15.9463 8.88825 15.3722 8.12183 14.6102 7.5794C13.8482 7.03696 12.936 6.74548 12.0006 6.74548C11.0652 6.74548 10.1531 7.03696 9.39107 7.5794C8.62902 8.12183 8.05495 8.88825 7.74868 9.77207C7.44242 10.6559 7.41918 11.6132 7.6822 12.5108C7.94522 13.4085 8.48143 14.2019 9.21626 14.7806C7.84828 15.3261 6.6721 16.2638 5.83563 17.4759C4.78068 16.2872 4.09158 14.8189 3.85118 13.2479C3.61077 11.6768 3.82931 10.0697 4.48051 8.61981C5.13171 7.16996 6.18785 5.93908 7.52194 5.07516C8.85602 4.21125 10.4113 3.75108 12.0006 3.75C12.4618 3.74993 12.9221 3.78818 13.3769 3.86438C13.5722 3.89519 13.7717 3.84764 13.9322 3.73208C14.0926 3.61652 14.2009 3.44229 14.2335 3.2473C14.2661 3.0523 14.2204 2.85231 14.1064 2.69082C13.9923 2.52934 13.8191 2.41943 13.6244 2.385C11.5876 2.04236 9.49464 2.35588 7.64767 3.28029C5.80069 4.2047 4.29529 5.69217 3.34881 7.52793C2.40233 9.3637 2.06375 11.4528 2.38196 13.4935C2.70016 15.5342 3.65869 17.421 5.11915 18.8815C6.5796 20.3419 8.46641 21.3005 10.5071 21.6187C12.5479 21.9369 14.6369 21.5983 16.4727 20.6518C18.3085 19.7053 19.7959 18.1999 20.7203 16.353C21.6448 14.506 21.9583 12.413 21.6156 10.3763C21.5828 10.1801 21.4734 10.005 21.3115 9.88947C21.1495 9.77396 20.9484 9.7275 20.7522 9.76031ZM9.00063 11.25C9.00063 10.6567 9.17658 10.0766 9.50623 9.58329C9.83587 9.08994 10.3044 8.70542 10.8526 8.47836C11.4008 8.2513 12.004 8.19189 12.5859 8.30764C13.1678 8.4234 13.7024 8.70912 14.122 9.12868C14.5415 9.54824 14.8272 10.0828 14.943 10.6647C15.0587 11.2467 14.9993 11.8499 14.7723 12.3981C14.5452 12.9462 14.1607 13.4148 13.6673 13.7444C13.174 14.0741 12.594 14.25 12.0006 14.25C11.205 14.25 10.4419 13.9339 9.87931 13.3713C9.31671 12.8087 9.00063 12.0457 9.00063 11.25ZM6.94563 18.5156C7.4882 17.6671 8.23564 16.9688 9.11906 16.4851C10.0025 16.0013 10.9935 15.7478 12.0006 15.7478C13.0078 15.7478 13.9988 16.0013 14.8822 16.4851C15.7656 16.9688 16.5131 17.6671 17.0556 18.5156C15.6103 19.6397 13.8316 20.2499 12.0006 20.2499C10.1697 20.2499 8.39094 19.6397 6.94563 18.5156Z" fill="#102A56"/>
</svg>
