<svg width="18" height="18" viewBox="0 0 18 18" fill="none" xmlns="http://www.w3.org/2000/svg">
<path d="M15.1875 2.25H10.6875C10.6013 2.24999 10.5164 2.26977 10.4391 2.3078C10.3618 2.34584 10.2943 2.40112 10.2417 2.46937L5.7417 8.32008L5.06249 7.64227C4.958 7.53767 4.83393 7.45469 4.69736 7.39807C4.56078 7.34146 4.41439 7.31232 4.26655 7.31232C4.11871 7.31232 3.97231 7.34146 3.83574 7.39807C3.69917 7.45469 3.57509 7.53767 3.47061 7.64227L2.57834 8.53523C2.47385 8.6397 2.39096 8.76373 2.33441 8.90024C2.27786 9.03675 2.24875 9.18306 2.24875 9.33082C2.24875 9.47858 2.27786 9.62489 2.33441 9.7614C2.39096 9.89791 2.47385 10.0219 2.57834 10.1264L3.98459 11.5327L2.01584 13.5014C1.91135 13.6059 1.82846 13.7299 1.77191 13.8664C1.71536 14.0029 1.68625 14.1492 1.68625 14.297C1.68625 14.4448 1.71536 14.5911 1.77191 14.7276C1.82846 14.8641 1.91135 14.9881 2.01584 15.0926L2.90811 15.9841C3.11907 16.195 3.4051 16.3134 3.70334 16.3134C4.00159 16.3134 4.28762 16.195 4.49858 15.9841L6.46733 14.0154L7.87358 15.4216C7.97806 15.5262 8.10214 15.6092 8.23871 15.6658C8.37528 15.7224 8.52167 15.7516 8.66952 15.7516C8.81736 15.7516 8.96375 15.7224 9.10032 15.6658C9.2369 15.6092 9.36097 15.5262 9.46545 15.4216L10.3577 14.5287C10.4622 14.4242 10.5451 14.3002 10.6017 14.1637C10.6582 14.0272 10.6873 13.8808 10.6873 13.7331C10.6873 13.5853 10.6582 13.439 10.6017 13.3025C10.5451 13.166 10.4622 13.042 10.3577 12.9375L9.67991 12.2597L15.5306 7.75969C15.5991 7.707 15.6544 7.63925 15.6925 7.5617C15.7305 7.48415 15.7502 7.39888 15.75 7.3125V2.8125C15.75 2.66332 15.6907 2.52024 15.5852 2.41475C15.4797 2.30926 15.3367 2.25 15.1875 2.25ZM3.70475 15.1875L2.81249 14.2959L4.78124 12.3272L5.6728 13.2188L3.70475 15.1875ZM8.66952 14.625L3.37499 9.33117L4.26795 8.4375L9.56249 13.7327L8.66952 14.625ZM14.625 7.03547L8.87764 11.4567L8.10842 10.6875L11.648 7.14797C11.7534 7.04242 11.8126 6.8993 11.8125 6.7501C11.8125 6.6009 11.7531 6.45784 11.6476 6.35238C11.5421 6.24693 11.3989 6.18772 11.2497 6.18779C11.1005 6.18785 10.9575 6.24719 10.852 6.35273L7.31249 9.89156L6.54397 9.12234L10.9645 3.375H14.625V7.03547Z" fill="#102A56"/>
</svg>
