<svg width="24" height="24" viewBox="0 0 24 24" fill="none" xmlns="http://www.w3.org/2000/svg">
<path d="M14.026 8.03533L5.62605 16.2853C5.48577 16.4233 5.29688 16.5006 5.10011 16.5006C4.90334 16.5006 4.71445 16.4233 4.57417 16.2853L0.974175 12.75C0.903938 12.681 0.847993 12.5987 0.809533 12.508C0.771074 12.4174 0.750853 12.32 0.750026 12.2215C0.749199 12.123 0.767782 12.0253 0.804713 11.934C0.841644 11.8426 0.896201 11.7595 0.965268 11.6892C1.03434 11.619 1.11656 11.5631 1.20725 11.5246C1.29794 11.4861 1.39531 11.4659 1.49381 11.4651C1.59232 11.4643 1.69002 11.4828 1.78134 11.5198C1.87266 11.5567 1.95581 11.6113 2.02605 11.6803L5.10011 14.6991L12.9751 6.96471C13.1171 6.82522 13.3087 6.74785 13.5077 6.7496C13.6062 6.75047 13.7036 6.77075 13.7943 6.80926C13.8851 6.84778 13.9673 6.90379 14.0364 6.97408C14.1054 7.04438 14.16 7.1276 14.1969 7.21897C14.2338 7.31035 14.2523 7.4081 14.2515 7.50665C14.2506 7.6052 14.2303 7.70261 14.1918 7.79332C14.1533 7.88403 14.0973 7.96627 14.027 8.03533H14.026ZM23.0354 6.97408C22.9664 6.90373 22.8842 6.84768 22.7934 6.80913C22.7027 6.77058 22.6053 6.75029 22.5067 6.74942C22.4082 6.74855 22.3104 6.76711 22.219 6.80406C22.1276 6.841 22.0444 6.89559 21.9742 6.96471L14.0992 14.6991L12.3339 12.9647C12.1919 12.8253 12.0004 12.7481 11.8014 12.7499C11.6025 12.7518 11.4124 12.8326 11.2731 12.9746C11.1337 13.1165 11.0565 13.308 11.0583 13.507C11.0602 13.7059 11.141 13.896 11.2829 14.0353L13.5732 16.2853C13.7135 16.4233 13.9024 16.5006 14.0992 16.5006C14.2959 16.5006 14.4848 16.4233 14.6251 16.2853L23.0251 8.03533C23.0955 7.96636 23.1516 7.88418 23.1903 7.7935C23.2289 7.70282 23.2493 7.60541 23.2502 7.50685C23.2512 7.40828 23.2327 7.3105 23.1959 7.21908C23.159 7.12767 23.1045 7.04441 23.0354 6.97408Z" fill="#17B26A"/>
</svg>
