<svg width="18" height="18" viewBox="0 0 18 18" fill="none" xmlns="http://www.w3.org/2000/svg">
<path d="M16.8753 3.9375V8.4375C16.8753 8.58668 16.8161 8.72976 16.7106 8.83525C16.6051 8.94074 16.462 9 16.3128 9C16.1636 9 16.0206 8.94074 15.9151 8.83525C15.8096 8.72976 15.7503 8.58668 15.7503 8.4375V5.29523L9.96078 11.0855C9.90854 11.1378 9.8465 11.1793 9.77822 11.2076C9.70993 11.2359 9.63673 11.2504 9.56281 11.2504C9.48889 11.2504 9.4157 11.2359 9.34741 11.2076C9.27912 11.1793 9.21708 11.1378 9.16484 11.0855L6.75031 8.67023L2.08578 13.3355C1.98023 13.441 1.83708 13.5003 1.68781 13.5003C1.53855 13.5003 1.39539 13.441 1.28984 13.3355C1.1843 13.2299 1.125 13.0868 1.125 12.9375C1.125 12.7882 1.1843 12.6451 1.28984 12.5395L6.35234 7.47703C6.40458 7.42473 6.46662 7.38324 6.53491 7.35494C6.6032 7.32663 6.67639 7.31206 6.75031 7.31206C6.82423 7.31206 6.89743 7.32663 6.96572 7.35494C7.034 7.38324 7.09604 7.42473 7.14828 7.47703L9.56281 9.89227L14.9551 4.5H11.8128C11.6636 4.5 11.5206 4.44074 11.4151 4.33525C11.3096 4.22976 11.2503 4.08668 11.2503 3.9375C11.2503 3.78832 11.3096 3.64524 11.4151 3.53975C11.5206 3.43426 11.6636 3.375 11.8128 3.375H16.3128C16.462 3.375 16.6051 3.43426 16.7106 3.53975C16.8161 3.64524 16.8753 3.78832 16.8753 3.9375Z" fill="white"/>
</svg>
