<svg width="31" height="30" viewBox="0 0 31 30" fill="none" xmlns="http://www.w3.org/2000/svg">
<g clip-path="url(#clip0_36824_41001)">
<path d="M21.3378 4.8957L5.40006 9.16621C5.01579 9.26918 4.68816 9.52058 4.48925 9.8651C4.29034 10.2096 4.23644 10.6191 4.3394 11.0033L7.83346 24.0433C7.93642 24.4276 8.18782 24.7552 8.53235 24.9541C8.87687 25.1531 9.28631 25.207 9.67057 25.104L25.6084 20.8335C25.9926 20.7305 26.3202 20.4791 26.5192 20.1346C26.7181 19.7901 26.772 19.3806 26.669 18.9964L23.175 5.95636C23.072 5.57209 22.8206 5.24446 22.4761 5.04555C22.1315 4.84664 21.7221 4.79274 21.3378 4.8957ZM21.7261 6.34459L24.2192 15.6492L21.2261 13.9219C21.0555 13.8233 20.8672 13.7594 20.6718 13.7337C20.4765 13.7079 20.278 13.7209 20.0877 13.7719C19.8974 13.8229 19.719 13.9109 19.5628 14.0308C19.4065 14.1508 19.2753 14.3003 19.1768 14.471L17.851 16.7674L12.7989 13.8505C12.4545 13.6518 12.0452 13.598 11.6611 13.7009C11.277 13.8039 10.9495 14.0551 10.7506 14.3994L8.05385 19.0703L5.78829 10.6151L21.7261 6.34459ZM8.60295 21.1195L12.0501 15.1489L21.2357 20.4522L9.28235 23.6551L8.60295 21.1195ZM25.2201 19.3846L23.285 19.9031L19.1514 17.5166L20.4773 15.2202L24.7683 17.6984L25.2201 19.3846ZM16.2737 12.0761C16.2161 11.8611 16.2235 11.634 16.2951 11.4233C16.3666 11.2126 16.499 11.0278 16.6755 10.8924C16.852 10.7569 17.0648 10.6769 17.2868 10.6623C17.5088 10.6477 17.7302 10.6994 17.9229 10.8106C18.1156 10.9219 18.2709 11.0878 18.3693 11.2873C18.4678 11.4869 18.5048 11.7111 18.4757 11.9317C18.4467 12.1523 18.3529 12.3594 18.2062 12.5267C18.0595 12.6939 17.8665 12.814 17.6515 12.8716C17.3633 12.9488 17.0563 12.9084 16.7979 12.7592C16.5395 12.61 16.3509 12.3643 16.2737 12.0761Z" fill="#102A56"/>
</g>
<defs>
<clipPath id="clip0_36824_41001">
<rect width="24" height="24" fill="white" transform="translate(0.806641 6.51453) rotate(-15)"/>
</clipPath>
</defs>
</svg>
