<svg width="31" height="30" viewBox="0 0 31 30" fill="none" xmlns="http://www.w3.org/2000/svg">
<g clip-path="url(#clip0_36824_41006)">
<path d="M19.3509 13.8315L15.7807 9.76907C15.6911 9.66702 15.5755 9.59122 15.4461 9.54976C15.3168 9.50831 15.1786 9.50274 15.0464 9.53367C14.9142 9.5646 14.7928 9.63086 14.6953 9.72537C14.5977 9.81989 14.5277 9.93911 14.4926 10.0703L12.9397 15.8659C12.9045 15.997 12.9055 16.1353 12.9427 16.2659C12.9799 16.3965 13.0519 16.5146 13.151 16.6075C13.25 16.7004 13.3725 16.7647 13.5052 16.7935C13.6379 16.8222 13.776 16.8144 13.9046 16.7708L19.0277 15.0377C19.1448 14.9982 19.2503 14.9304 19.3349 14.8403C19.4195 14.7502 19.4804 14.6406 19.5124 14.5212C19.5444 14.4018 19.5464 14.2764 19.5182 14.1561C19.4901 14.0358 19.4326 13.9243 19.3509 13.8315ZM14.7513 14.9003L15.5775 11.8169L17.4815 13.977L14.7513 14.9003ZM25.6054 9.1657L9.66764 4.89519C9.28337 4.79222 8.87394 4.84612 8.52941 5.04504C8.18488 5.24395 7.93349 5.57158 7.83052 5.95585L5.11292 16.0981C5.00996 16.4823 5.06386 16.8918 5.26277 17.2363C5.46168 17.5808 5.78931 17.8322 6.17358 17.9352L22.1114 22.2057C22.4956 22.3087 22.9051 22.2548 23.2496 22.0558C23.5941 21.8569 23.8455 21.5293 23.9485 21.145L26.6661 11.0028C26.769 10.6185 26.7151 10.2091 26.5162 9.86459C26.3173 9.52006 25.9897 9.26867 25.6054 9.1657ZM22.4996 20.7568L6.56181 16.4863L9.27941 6.34408L25.2172 10.6146L22.4996 20.7568ZM22.9779 24.7673C22.9264 24.9594 22.8007 25.1232 22.6285 25.2227C22.4562 25.3221 22.2515 25.3491 22.0593 25.2976L4.67268 20.6388C4.48055 20.5874 4.31673 20.4617 4.21728 20.2894C4.11782 20.1171 4.09087 19.9124 4.14235 19.7203C4.19383 19.5282 4.31953 19.3643 4.49179 19.2649C4.66406 19.1654 4.86877 19.1385 5.06091 19.19L22.4476 23.8487C22.6397 23.9002 22.8035 24.0259 22.903 24.1981C23.0024 24.3704 23.0294 24.5751 22.9779 24.7673Z" fill="#102A56"/>
</g>
<defs>
<clipPath id="clip0_36824_41006">
<rect width="24" height="24" fill="white" transform="translate(7.01562 0.302368) rotate(15)"/>
</clipPath>
</defs>
</svg>
